<svg id="Calque_1" data-name="Calque 1" xmlns="http://www.w3.org/2000/svg" viewBox="0 0 85 85"><defs><style>.cls-1{fill:#003d7c;}</style></defs><title>5</title><path class="cls-1" d="M23.64,58.27h3.59v9.48a1.09,1.09,0,0,0,.65,1,1.25,1.25,0,0,0,.42.08,1.08,1.08,0,0,0,.75-.3l10.7-10.25H59.83a7.09,7.09,0,0,0,6.53-4.46,1.06,1.06,0,1,0-2-.78,4.94,4.94,0,0,1-4.55,3.1H39.32a1,1,0,0,0-.73.3l-9.21,8.82v-8a1.06,1.06,0,0,0-1.07-1.07H23.64a4.89,4.89,0,0,1-4.89-4.88V29.16a4.89,4.89,0,0,1,4.89-4.88H45.83a1.07,1.07,0,0,0,0-2.14H23.64a7,7,0,0,0-7,7V51.25a7,7,0,0,0,7,7Zm0,0"/><path class="cls-1" d="M44.25,30.32a2.12,2.12,0,0,0-1.69-.84h-5.1a2.11,2.11,0,0,0-2.1,2.1V47.15a2.11,2.11,0,0,0,2.1,2.11h5.1A2.15,2.15,0,0,0,44,48.7a5,5,0,0,0,3.49,1.44H61.93c3.33,0,5.45-1.75,5.83-4.78L69.7,33a.86.86,0,0,0,0-.16,4.94,4.94,0,0,0-4.93-4.94H57.7v-5c0-2.31-.68-4-2-4.95-2.12-1.56-5-.67-5.14-.64a1.06,1.06,0,0,0-.75,1v5.91c0,4.48-5.24,6-5.46,6.08l-.08,0ZM42.53,47.13h-5V31.62h5Zm2.14-14.75a.91.91,0,0,0,.23,0c.29-.07,7-2,7-8.14v-5a3.45,3.45,0,0,1,2.48.48c.76.56,1.15,1.64,1.15,3.22V29A1.06,1.06,0,0,0,56.62,30h8.14a2.79,2.79,0,0,1,2.8,2.72L65.63,45.05v0C65.39,47,64.15,48,61.92,48H47.48a2.8,2.8,0,0,1-2.8-2.8V32.38Zm0,0"/></svg>