<svg id="Calque_1" data-name="Calque 1" xmlns="http://www.w3.org/2000/svg" xmlns:xlink="http://www.w3.org/1999/xlink" viewBox="0 0 85 85"><defs><style>.cls-1{fill:none;}.cls-2{clip-path:url(#clip-path);}.cls-3{fill:#003d7c;}</style><clipPath id="clip-path"><rect class="cls-1" x="14.13" y="26" width="57.65" height="38.23"/></clipPath></defs><title>3</title><g class="cls-2"><path class="cls-3" d="M14.25,45.78a1.11,1.11,0,0,0,.67.59l7.37,2.53a1,1,0,0,0,.37.06,1.17,1.17,0,0,0,1.11-.79l5.78-16.86.29.1a6,6,0,0,0,4.59-.26l.72-.35a3.6,3.6,0,0,1,2.75-.16l13.44,4.63a2.59,2.59,0,0,1-.88,1.45,2.75,2.75,0,0,1-2.47,0l-6-2.06a1.16,1.16,0,0,0-1.5.81A8,8,0,0,1,37,40c-1.65.88-3.71.9-6.12.08a1.17,1.17,0,1,0-.76,2.21,12.58,12.58,0,0,0,4,.73,8.3,8.3,0,0,0,4-1,9.75,9.75,0,0,0,4.18-4.81L47.22,39a5,5,0,0,0,4.56-.3,5.49,5.49,0,0,0,2-4.11A1.21,1.21,0,0,0,53,33.4L38.65,28.45a6,6,0,0,0-4.55.28l-.71.35a3.61,3.61,0,0,1-2.79.17l-1.19-.43a.8.8,0,0,0-.23-.1l-7.33-2.56a1.17,1.17,0,0,0-1.48.73l-6.18,18a1.22,1.22,0,0,0,.06.88Zm8-17,5.15,1.77L22,46.31l-5.16-1.76Zm0,0"/><path class="cls-3" d="M26.38,56.46a3.41,3.41,0,0,0,3,1.9,3.43,3.43,0,0,0,.34,1.5,3.38,3.38,0,0,0,2,1.73,3.32,3.32,0,0,0,1.11.19,3.24,3.24,0,0,0,1.49-.36l.62-.3a3.55,3.55,0,0,0,.31,1.06,3.4,3.4,0,0,0,2,1.73,3.53,3.53,0,0,0,1.11.18,3.26,3.26,0,0,0,1.49-.35l13.38-6.55a34.73,34.73,0,0,0,8.19-5.59l3-2.75,6.84-3.34A1.16,1.16,0,0,0,71.67,44l-8.33-17.1a1.16,1.16,0,0,0-.68-.59,1.11,1.11,0,0,0-.89.06l-7,3.42a1.17,1.17,0,0,0-.53,1.56l8,16.31-2.47,2.27a32.59,32.59,0,0,1-7.64,5.21L38.74,61.66a1.06,1.06,0,0,1-.84,0,1.09,1.09,0,0,1-.67-1.38,1.15,1.15,0,0,1,.56-.63L45.27,56a1.16,1.16,0,0,0-1-2.08l-7.49,3.66-3.53,1.73a1.09,1.09,0,0,1-.83,0,1.15,1.15,0,0,1-.63-.56,1,1,0,0,1,0-.83,1.1,1.1,0,0,1,.55-.63L43,52.13A1.16,1.16,0,0,0,42,50l-12.07,5.9a1.1,1.1,0,0,1-1.45-.5,1,1,0,0,1,0-.83A1.05,1.05,0,0,1,29,54l4.76-2.33,6.17-3a1.16,1.16,0,0,0-1-2.08l-9.61,4.7a1.09,1.09,0,0,1-1-2l5.11-2.49a1.17,1.17,0,1,0-1-2.09l-5.1,2.5a3.4,3.4,0,0,0-.6,5.76,3.39,3.39,0,0,0-.3,3.48ZM56.85,31.33l4.9-2.4,7.34,15-4.9,2.41Zm0,0"/></g></svg>