<svg id="Calque_1" data-name="Calque 1" xmlns="http://www.w3.org/2000/svg" viewBox="0 0 85 85"><defs><style>.cls-1{fill:#003d7c;}</style></defs><title>2</title><path class="cls-1" d="M55.93,51.41a44.61,44.61,0,0,0-7.79-5.06V41.88a3.59,3.59,0,0,0,1.13-2.61V33.63a6.12,6.12,0,0,0-6.11-6.11H41.94a6.12,6.12,0,0,0-6.11,6.11v5.64A3.56,3.56,0,0,0,37,41.88v4.47a45.2,45.2,0,0,0-7.8,5.06,3.74,3.74,0,0,0-1.37,2.91v3.86a1,1,0,0,0,2.06,0V54.32A1.72,1.72,0,0,1,30.48,53a42.92,42.92,0,0,1,7.83-5A1.28,1.28,0,0,0,39,46.82V41.39a1,1,0,0,0-.45-.85,1.51,1.51,0,0,1-.68-1.26V33.64a4.06,4.06,0,0,1,4-4.06h1.22a4.06,4.06,0,0,1,4.05,4.06v5.64a1.51,1.51,0,0,1-.67,1.26,1,1,0,0,0-.46.85v5.43A1.3,1.3,0,0,0,46.8,48a43.34,43.34,0,0,1,7.82,5,1.67,1.67,0,0,1,.62,1.32v3.86a1,1,0,0,0,2.06,0V54.32A3.74,3.74,0,0,0,55.93,51.41Z"/><path class="cls-1" d="M74,44a5.79,5.79,0,0,0-5.61-5.78,26.57,26.57,0,0,0-20-20,5.79,5.79,0,0,0-11.57,0,26.56,26.56,0,0,0-20.06,20,5.79,5.79,0,0,0,0,11.57,26.57,26.57,0,0,0,20,20V70a5.79,5.79,0,0,0,11.58,0v-.14a26.57,26.57,0,0,0,20-20A5.8,5.8,0,0,0,74,44ZM42.55,14.23a4.16,4.16,0,1,1-4.15,4.15A4.16,4.16,0,0,1,42.55,14.23ZM12.74,44a4.16,4.16,0,1,1,4.15,4.16A4.15,4.15,0,0,1,12.74,44ZM42.55,74.17A4.16,4.16,0,1,1,46.71,70,4.15,4.15,0,0,1,42.55,74.17Zm5.52-5.9a5.79,5.79,0,0,0-11,0A25,25,0,0,1,18.35,49.65a5.79,5.79,0,0,0,0-11.21A24.91,24.91,0,0,1,37,19.84a5.79,5.79,0,0,0,11.2,0,24.91,24.91,0,0,1,18.6,18.6,5.79,5.79,0,0,0,0,11.21A24.92,24.92,0,0,1,48.07,68.27ZM68.21,48.2A4.16,4.16,0,1,1,72.37,44,4.16,4.16,0,0,1,68.21,48.2Z"/></svg>