<svg id="Calque_1" data-name="Calque 1" xmlns="http://www.w3.org/2000/svg" viewBox="0 0 85 85"><defs><style>.cls-1{fill:#003d7c;}</style></defs><title>1</title><rect class="cls-1" x="46.08" y="62.19" width="1.79" height="1.79"/><rect class="cls-1" x="46.08" y="56.82" width="1.79" height="1.79"/><rect class="cls-1" x="37.13" y="62.19" width="1.79" height="1.79"/><rect class="cls-1" x="37.13" y="56.82" width="1.79" height="1.79"/><path class="cls-1" d="M67.75,53a9.75,9.75,0,0,0-18.26-4.75L47.87,48V45.17A8.92,8.92,0,0,0,51.45,38V32.66h0V24.23a4.5,4.5,0,0,0,2.68-4.09h0a4.47,4.47,0,0,0-8.05-2.68,4.46,4.46,0,0,0-7.15,0,4.49,4.49,0,0,0-3.57-1.8h0a4.48,4.48,0,0,0-1.79,8.58V38a9,9,0,0,0,3.58,7.15V48l-6.32,1a6.22,6.22,0,0,0-5.31,6.19V69.35h1.79V55.17a4.44,4.44,0,0,1,3.79-4.42l6.77-1a8,8,0,0,0,1.19.55L39.73,53l-7.21,1.11a.89.89,0,0,0-.76.88V69.35h1.79V55.8l10.87-1.67a.91.91,0,0,0,.74-.67l.8-3.2a9.86,9.86,0,0,0,1.19-.56l1.6.25a9.61,9.61,0,0,0-.5,3,9.71,9.71,0,0,0,3.2,7.2v9.14h1.79V61.5a9.68,9.68,0,0,0,4.47,1.24v6.61H59.5V62.62A9.76,9.76,0,0,0,67.75,53ZM34.67,22.72a2.68,2.68,0,0,1,.67-5.28h0A2.69,2.69,0,0,1,38,20.12v0a.89.89,0,0,0,.89.89h0a.91.91,0,0,0,.9-.89h0a2.68,2.68,0,1,1,5.36,0,.9.9,0,0,0,1.79,0,2.69,2.69,0,1,1,3.36,2.59.88.88,0,0,0-.67.86v4.6H46.08V25.5H44.29v2.69H40.71V25.5H38.92v2.69H37.13V30H49.66v1.79H35.34V23.59A.9.9,0,0,0,34.67,22.72Zm8.9,29.73-2.06.31-.5-2a9.86,9.86,0,0,0,3,0Zm2.51-4.23a7.77,7.77,0,0,1-7.16,0v-2a8.92,8.92,0,0,0,7.16,0Zm-3.58-3A7.17,7.17,0,0,1,35.34,38V33.56H49.66V38A7.17,7.17,0,0,1,42.5,45.19ZM58,61.25A8.25,8.25,0,1,1,66.25,53,8.26,8.26,0,0,1,58,61.25Z"/><polygon class="cls-1" points="58.86 48.7 56.92 48.7 56.92 52.51 53.31 52.51 53.31 54.35 56.92 54.35 56.92 58.17 58.86 58.17 58.86 54.35 62.49 54.35 62.49 52.51 58.86 52.51 58.86 48.7"/></svg>