<svg id="Calque_1" data-name="Calque 1" xmlns="http://www.w3.org/2000/svg" viewBox="0 0 85 85"><defs><style>.cls-1{fill:#003d7c;}</style></defs><title>6</title><path class="cls-1" d="M71.8,56.3l-.35-.64a1.69,1.69,0,0,0-1.28-.86l-2.25-.25.14-1.19a1.49,1.49,0,0,0,0-.63l-.35-1.31a1.61,1.61,0,0,0-.47-.78v0a1.66,1.66,0,0,0,.9-1.48V48.07a1.64,1.64,0,0,0-.38-1l-1.08-1.34.46-.67a1.65,1.65,0,0,0,.08-1.75l-1.56-2.8a1.68,1.68,0,0,0-1-.79L67.48,35l1.25-.87A1.68,1.68,0,0,0,69.44,33l1.33-9a1.66,1.66,0,0,0-1.2-1.85L58.31,19l-5.89-2.75-7-6.63a1.67,1.67,0,0,0-1.67-.37l-3.66,1.22a1.67,1.67,0,0,0-1.14,1.62L39,15.54l-5.64,2.9a1.67,1.67,0,0,0-.91,1.49,1.74,1.74,0,0,0,.34,1l-.74.34-3.2-.68L28.5,19a1.65,1.65,0,0,0-1.62-1.29H25.17a1.67,1.67,0,0,0-1.32.65,1.62,1.62,0,0,0-.29,1.44l1.5,5.72-3.95.07-1-1.38a1.64,1.64,0,0,0-1.73-.65l-7.11,1.66A1.65,1.65,0,0,0,10,27.1l.51,3.68a1.64,1.64,0,0,0,.93,1.27l10.4,5-.17.77a1.7,1.7,0,0,0,.12,1.09l1.46,3,2.32,4.93L24.21,60.13,23,61.68a1.65,1.65,0,0,0,.4,2.46l5.86,3.72a1.68,1.68,0,0,0,.78.26l5.32.36a1.66,1.66,0,0,0,1.47-.69l5.75,2.71a1.64,1.64,0,0,0,.72.16h.16l4.47-.44A1.73,1.73,0,0,0,49,69.58a1.66,1.66,0,0,0,.34-1.25L49,65.69l3.74-3.09,9.62,2.73a1.66,1.66,0,0,0,1.47-.28l6.49-5a1.74,1.74,0,0,0,.39-.42l1-1.63A1.63,1.63,0,0,0,71.8,56.3Zm-3,2L62.68,63l-9.63-2.74a1.65,1.65,0,0,0-1.51.32l-4.3,3.54a1.7,1.7,0,0,0-.59,1.51L47,68l-3.61.36-6.22-2.93a1.63,1.63,0,0,0-.71-.16,1.61,1.61,0,0,0-.83.22,1.64,1.64,0,0,0-.65.68l-4.63-.32-5.1-3.24.92-1.12a1.67,1.67,0,0,0,.36-.88l1.41-13.65a1.68,1.68,0,0,0-.15-.88l-2.41-5.1L24,38.12l.24-1.06a1.66,1.66,0,0,0-.9-1.86L12.77,30.11l-.38-2.74L18.49,26l.93,1.3a1.66,1.66,0,0,0,1.38.7l5.14-.09a1.66,1.66,0,0,0,1.58-2.09L26,20.07h.34l.33,1.45A1.66,1.66,0,0,0,28,22.77l3.83.82a1.66,1.66,0,0,0,1.05-.12l2-.92a1.66,1.66,0,0,0,1-1.49A1.74,1.74,0,0,0,35.42,20l5-2.58a1.67,1.67,0,0,0,.9-1.52l-.07-3.34,2.82-.94,6.82,6.43a1.32,1.32,0,0,0,.44.3l6,2.82a1.14,1.14,0,0,0,.26.09l10.75,3-1.21,8.11-1.13.78a1.53,1.53,0,0,0-.48.5l-3.74,6.09a1.67,1.67,0,0,0,2.06,2.41l1,1.89-.5.74a1.67,1.67,0,0,0,.08,2l1.24,1.54v.32l-.27.07a1.64,1.64,0,0,0-1.21,1.19,1.7,1.7,0,0,0,.47,1.64l.73.67.26,1-.21,1.73a1.64,1.64,0,0,0,.34,1.24,1.67,1.67,0,0,0,1.13.62l2.57.29Z"/><path class="cls-1" d="M45,21.18A14,14,0,0,0,33.09,42.54L44.2,60.45a1.18,1.18,0,0,0,1,.55h0a1.17,1.17,0,0,0,1-.57L57,42.35A14,14,0,0,0,45,21.18Zm10,20L45.18,57.59,35.07,41.31a11.67,11.67,0,1,1,20-.16Z"/><path class="cls-1" d="M45,28.18a7,7,0,1,0,7,7A7,7,0,0,0,45,28.18Zm0,11.68a4.68,4.68,0,1,1,4.67-4.68A4.68,4.68,0,0,1,45,39.86Z"/></svg>